# xmcd
#
# Track frame offsets: 
#        150
#        14784
#        36721
#
# Disc length: 683 seconds
#
# Revision: 0
# Processed by: cddbd v1.5.2PL0 Copyright (c) Steve Scherf et al.
# Submitted via: ExactAudioCopy v0.99pb4
#
DISCID=2802a903
DTITLE=The Damn Neighbors - Sampler Disc
DYEAR=2008
DGENRE=Blues
TTITLE0=Let Me Love You
TTITLE1=Mojo
TTITLE2=Crosscut Saw
EXTD=
EXTT0=
EXTT1=
EXTT2=
PLAYORDER=
